<?xml version="1.0" encoding="UTF-8" standalone="no"?>
<svg
   xmlns:dc="http://purl.org/dc/elements/1.1/"
   xmlns:cc="http://creativecommons.org/ns#"
   xmlns:rdf="http://www.w3.org/1999/02/22-rdf-syntax-ns#"
   xmlns:svg="http://www.w3.org/2000/svg"
   xmlns="http://www.w3.org/2000/svg"
   viewBox="0 0 793.33331 1122.6667"
   height="1122.6667"
   width="793.33331"
   xml:space="preserve"
   id="svg2"
   version="1.1"><metadata
     id="metadata8"><rdf:RDF><cc:Work
         rdf:about=""><dc:format>image/svg+xml</dc:format><dc:type
           rdf:resource="http://purl.org/dc/dcmitype/StillImage" /></cc:Work></rdf:RDF></metadata><defs
     id="defs6"><clipPath
       id="clipPath18"
       clipPathUnits="userSpaceOnUse"><path
         id="path16"
         d="m 0,8019 h 9190 v 4113 H 0 V 8019" /></clipPath><clipPath
       id="clipPath150"
       clipPathUnits="userSpaceOnUse"><path
         id="path148"
         d="M 0,0 H 9373 V 12350 H 0 V 0" /></clipPath></defs><g
     transform="matrix(0.08,0,0,-0.08,21.333333,1056)"
     id="g10"><g
       id="g12"><g
         clip-path="url(#clipPath18)"
         id="g14"><g
           transform="rotate(90,-3782,5555.5)"
           id="g20"><path
             id="path22"
             style="fill:none;stroke:#000000;stroke-width:19;stroke-linecap:round;stroke-linejoin:round;stroke-miterlimit:10;stroke-dasharray:none;stroke-opacity:1"
             d="M 156.19621,9.74645 C 151.04909,92.23401 82.64799,156.5 0,156.5 -82.64799,156.5 -151.04909,92.23401 -156.19621,9.74645" /></g><path
           id="path24"
           style="fill:none;stroke:#000000;stroke-width:19;stroke-linecap:round;stroke-linejoin:round;stroke-miterlimit:10;stroke-dasharray:none;stroke-opacity:1"
           d="m 4279,9541 v 109 L 1764,9494" /><path
           id="path26"
           style="fill:none;stroke:#000000;stroke-width:19;stroke-linecap:round;stroke-linejoin:round;stroke-miterlimit:10;stroke-dasharray:none;stroke-opacity:1"
           d="M 4279,9134 V 9024 L 1764,9181" /><g
           transform="rotate(90,-3782,5555.5)"
           id="g28"><path
             id="path30"
             style="fill:none;stroke:#000000;stroke-width:19;stroke-linecap:round;stroke-linejoin:round;stroke-miterlimit:10;stroke-dasharray:none;stroke-opacity:1"
             d="M 0,-62.5 C 34.5178,-62.5 62.5,-34.5178 62.5,0 62.5,34.5178 34.5178,62.5 0,62.5 -34.5178,62.5 -62.5,34.5178 -62.5,0 -62.5,-34.5178 -34.5178,-62.5 0,-62.5" /></g><g
           transform="rotate(90,-2529,6808.5)"
           id="g32"><path
             id="path34"
             style="fill:none;stroke:#000000;stroke-width:19;stroke-linecap:round;stroke-linejoin:round;stroke-miterlimit:10;stroke-dasharray:none;stroke-opacity:1"
             d="M 203.5,0 C 203.5,112.38995 112.38995,203.5 0,203.5 -112.38995,203.5 -203.5,112.38995 -203.5,0" /></g><path
           id="path36"
           style="fill:none;stroke:#000000;stroke-width:9;stroke-linecap:round;stroke-linejoin:round;stroke-miterlimit:10;stroke-dasharray:none;stroke-opacity:1"
           d="M 4279,9899 V 9596" /><path
           id="path38"
           style="fill:none;stroke:#000000;stroke-width:9;stroke-linecap:round;stroke-linejoin:round;stroke-miterlimit:10;stroke-dasharray:none;stroke-opacity:1"
           d="m 4279,9551 v -45" /><path
           id="path40"
           style="fill:none;stroke:#000000;stroke-width:9;stroke-linecap:round;stroke-linejoin:round;stroke-miterlimit:10;stroke-dasharray:none;stroke-opacity:1"
           d="M 4279,9461 V 9191" /><path
           id="path42"
           style="fill:none;stroke:#000000;stroke-width:9;stroke-linecap:round;stroke-linejoin:round;stroke-miterlimit:10;stroke-dasharray:none;stroke-opacity:1"
           d="m 4279,9146 v -45" /><path
           id="path44"
           style="fill:none;stroke:#000000;stroke-width:9;stroke-linecap:round;stroke-linejoin:round;stroke-miterlimit:10;stroke-dasharray:none;stroke-opacity:1"
           d="M 4279,9056 V 8753" /><path
           id="path46"
           style="fill:none;stroke:#000000;stroke-width:9;stroke-linecap:round;stroke-linejoin:round;stroke-miterlimit:10;stroke-dasharray:none;stroke-opacity:1"
           d="m 3718,9337 h 292" /><path
           id="path48"
           style="fill:none;stroke:#000000;stroke-width:9;stroke-linecap:round;stroke-linejoin:round;stroke-miterlimit:10;stroke-dasharray:none;stroke-opacity:1"
           d="m 4055,9337 h 45" /><path
           id="path50"
           style="fill:none;stroke:#000000;stroke-width:9;stroke-linecap:round;stroke-linejoin:round;stroke-miterlimit:10;stroke-dasharray:none;stroke-opacity:1"
           d="m 4145,9337 h 270" /><path
           id="path52"
           style="fill:none;stroke:#000000;stroke-width:9;stroke-linecap:round;stroke-linejoin:round;stroke-miterlimit:10;stroke-dasharray:none;stroke-opacity:1"
           d="m 4460,9337 h 45" /><path
           id="path54"
           style="fill:none;stroke:#000000;stroke-width:9;stroke-linecap:round;stroke-linejoin:round;stroke-miterlimit:10;stroke-dasharray:none;stroke-opacity:1"
           d="m 4550,9337 h 293" /><path
           id="path56"
           style="fill:none;stroke:#000000;stroke-width:19;stroke-linecap:round;stroke-linejoin:round;stroke-miterlimit:10;stroke-dasharray:none;stroke-opacity:1"
           d="m 1836,10449 h 125 v 470 h -125 v -470" /><path
           id="path58"
           style="fill:none;stroke:#000000;stroke-width:19;stroke-linecap:round;stroke-linejoin:round;stroke-miterlimit:10;stroke-dasharray:none;stroke-opacity:1"
           d="m 1836,10919 v 376 h 125 v -376" /><path
           id="path60"
           style="fill:none;stroke:#000000;stroke-width:19;stroke-linecap:round;stroke-linejoin:round;stroke-miterlimit:10;stroke-dasharray:none;stroke-opacity:1"
           d="m 1836,10449 v -157 h 125 v 157" /><path
           id="path62"
           style="fill:none;stroke:#000000;stroke-width:9;stroke-linecap:round;stroke-linejoin:round;stroke-miterlimit:10;stroke-dasharray:none;stroke-opacity:1"
           d="m 1836,10733 h 125" /><path
           id="path64"
           style="fill:none;stroke:#000000;stroke-width:9;stroke-linecap:round;stroke-linejoin:round;stroke-miterlimit:10;stroke-dasharray:none;stroke-opacity:1"
           d="m 1836,10635 h 125" /><path
           id="path66"
           style="fill:none;stroke:#bd5800;stroke-width:28;stroke-linecap:round;stroke-linejoin:round;stroke-miterlimit:10;stroke-dasharray:none;stroke-opacity:1"
           d="m 1773,9337 v 1347 h 188" /><g
           transform="rotate(90,-4455.5,6229)"
           id="g68"><path
             id="path70"
             style="fill:none;stroke:#bd5800;stroke-width:28;stroke-linecap:round;stroke-linejoin:round;stroke-miterlimit:10;stroke-dasharray:none;stroke-opacity:1"
             d="M 0,-31.5 C 17.39697,-31.5 31.5,-17.39697 31.5,0 31.5,17.39697 17.39697,31.5 0,31.5 -17.39697,31.5 -31.5,17.39697 -31.5,0 -31.5,-17.39697 -17.39697,-31.5 0,-31.5" /></g><g
           transform="rotate(90,-3782,5555.5)"
           id="g72"><path
             id="path74"
             style="fill:none;stroke:#bd5800;stroke-width:28;stroke-linecap:round;stroke-linejoin:round;stroke-miterlimit:10;stroke-dasharray:none;stroke-opacity:1"
             d="M 0,-31.5 C 17.39697,-31.5 31.5,-17.39697 31.5,0 31.5,17.39697 17.39697,31.5 0,31.5 -17.39697,31.5 -31.5,17.39697 -31.5,0 -31.5,-17.39697 -17.39697,-31.5 0,-31.5" /></g><path
           id="path76"
           style="fill:none;stroke:#000000;stroke-width:9;stroke-linecap:round;stroke-linejoin:round;stroke-miterlimit:10;stroke-dasharray:none;stroke-opacity:1"
           d="m 1583,10684 h 233" /><path
           id="path78"
           style="fill:none;stroke:#000000;stroke-width:9;stroke-linecap:round;stroke-linejoin:round;stroke-miterlimit:10;stroke-dasharray:none;stroke-opacity:1"
           d="m 1861,10684 h 45" /><path
           id="path80"
           style="fill:none;stroke:#000000;stroke-width:9;stroke-linecap:round;stroke-linejoin:round;stroke-miterlimit:10;stroke-dasharray:none;stroke-opacity:1"
           d="m 1951,10684 h 233" /><g
           transform="rotate(90,-2135.5,7637)"
           id="g82"><path
             id="path84"
             style="fill:none;stroke:#000000;stroke-width:19;stroke-linecap:round;stroke-linejoin:round;stroke-miterlimit:10;stroke-dasharray:none;stroke-opacity:1"
             d="m 155.51476,-17.53309 c 9.25959,82.13056 -46.94285,157.30274 -128.338,171.65536 -81.39515,14.35261 -159.91912,-37.06295 -179.30911,-117.40719" /></g><path
           id="path86"
           style="fill:none;stroke:#000000;stroke-width:19;stroke-linecap:round;stroke-linejoin:round;stroke-miterlimit:10;stroke-dasharray:none;stroke-opacity:1"
           d="m 8004,9538 19,108 -2505,282" /><path
           id="path88"
           style="fill:none;stroke:#000000;stroke-width:19;stroke-linecap:round;stroke-linejoin:round;stroke-miterlimit:10;stroke-dasharray:none;stroke-opacity:1"
           d="m 7933,9137 -19,-108 -2450,591" /><g
           transform="rotate(90,-2135.5,7637)"
           id="g90"><path
             id="path92"
             style="fill:none;stroke:#000000;stroke-width:19;stroke-linecap:round;stroke-linejoin:round;stroke-miterlimit:10;stroke-dasharray:none;stroke-opacity:1"
             d="M 0,-62.5 C 34.5178,-62.5 62.5,-34.5178 62.5,0 62.5,34.5178 34.5178,62.5 0,62.5 -34.5178,62.5 -62.5,34.5178 -62.5,0 -62.5,-34.5178 -34.5178,-62.5 0,-62.5" /></g><g
           transform="rotate(90,-684,8653.5)"
           id="g94"><path
             id="path96"
             style="fill:none;stroke:#000000;stroke-width:19;stroke-linecap:round;stroke-linejoin:round;stroke-miterlimit:10;stroke-dasharray:none;stroke-opacity:1"
             d="M 200.40988,-35.32887 C 219.92148,75.35446 146.01219,180.89828 35.32887,200.40988 -75.35446,219.92148 -180.89828,146.01219 -200.40988,35.32887" /></g><path
           id="path98"
           style="fill:none;stroke:#000000;stroke-width:9;stroke-linecap:round;stroke-linejoin:round;stroke-miterlimit:10;stroke-dasharray:none;stroke-opacity:1"
           d="m 8066,9890 -52,-298" /><path
           id="path100"
           style="fill:none;stroke:#000000;stroke-width:9;stroke-linecap:round;stroke-linejoin:round;stroke-miterlimit:10;stroke-dasharray:none;stroke-opacity:1"
           d="m 8006,9548 -8,-45" /><path
           id="path102"
           style="fill:none;stroke:#000000;stroke-width:9;stroke-linecap:round;stroke-linejoin:round;stroke-miterlimit:10;stroke-dasharray:none;stroke-opacity:1"
           d="m 7990,9459 -47,-266" /><path
           id="path104"
           style="fill:none;stroke:#000000;stroke-width:9;stroke-linecap:round;stroke-linejoin:round;stroke-miterlimit:10;stroke-dasharray:none;stroke-opacity:1"
           d="m 7936,9149 -8,-44" /><path
           id="path106"
           style="fill:none;stroke:#000000;stroke-width:9;stroke-linecap:round;stroke-linejoin:round;stroke-miterlimit:10;stroke-dasharray:none;stroke-opacity:1"
           d="m 7920,9060 -53,-298" /><path
           id="path108"
           style="fill:none;stroke:#000000;stroke-width:9;stroke-linecap:round;stroke-linejoin:round;stroke-miterlimit:10;stroke-dasharray:none;stroke-opacity:1"
           d="m 7416,9435 288,-51" /><path
           id="path110"
           style="fill:none;stroke:#000000;stroke-width:9;stroke-linecap:round;stroke-linejoin:round;stroke-miterlimit:10;stroke-dasharray:none;stroke-opacity:1"
           d="m 7748,9376 44,-8" /><path
           id="path112"
           style="fill:none;stroke:#000000;stroke-width:9;stroke-linecap:round;stroke-linejoin:round;stroke-miterlimit:10;stroke-dasharray:none;stroke-opacity:1"
           d="m 7837,9360 266,-46" /><path
           id="path114"
           style="fill:none;stroke:#000000;stroke-width:9;stroke-linecap:round;stroke-linejoin:round;stroke-miterlimit:10;stroke-dasharray:none;stroke-opacity:1"
           d="m 8147,9306 44,-8" /><path
           id="path116"
           style="fill:none;stroke:#000000;stroke-width:9;stroke-linecap:round;stroke-linejoin:round;stroke-miterlimit:10;stroke-dasharray:none;stroke-opacity:1"
           d="m 8236,9290 287,-51" /><path
           id="path118"
           style="fill:none;stroke:#000000;stroke-width:19;stroke-linecap:round;stroke-linejoin:round;stroke-miterlimit:10;stroke-dasharray:none;stroke-opacity:1"
           d="m 5526,10884 h 125 v 470 h -125 v -470" /><path
           id="path120"
           style="fill:none;stroke:#000000;stroke-width:19;stroke-linecap:round;stroke-linejoin:round;stroke-miterlimit:10;stroke-dasharray:none;stroke-opacity:1"
           d="m 5526,10919 v 376 h 125 v -376" /><path
           id="path122"
           style="fill:none;stroke:#000000;stroke-width:19;stroke-linecap:round;stroke-linejoin:round;stroke-miterlimit:10;stroke-dasharray:none;stroke-opacity:1"
           d="m 5526,10884 v -442 h 125 v 442" /><path
           id="path124"
           style="fill:none;stroke:#000000;stroke-width:9;stroke-linecap:round;stroke-linejoin:round;stroke-miterlimit:10;stroke-dasharray:none;stroke-opacity:1"
           d="m 5526,11168 h 125" /><path
           id="path126"
           style="fill:none;stroke:#000000;stroke-width:9;stroke-linecap:round;stroke-linejoin:round;stroke-miterlimit:10;stroke-dasharray:none;stroke-opacity:1"
           d="m 5526,11071 h 125" /><path
           id="path128"
           style="fill:none;stroke:#bd5800;stroke-width:28;stroke-linecap:round;stroke-linejoin:round;stroke-miterlimit:10;stroke-dasharray:none;stroke-opacity:1"
           d="m 5501,9772 -38,1347 h 188" /><g
           transform="rotate(90,-2828,8291.5)"
           id="g130"><path
             id="path132"
             style="fill:none;stroke:#bd5800;stroke-width:28;stroke-linecap:round;stroke-linejoin:round;stroke-miterlimit:10;stroke-dasharray:none;stroke-opacity:1"
             d="M 0,-31.5 C 17.39697,-31.5 31.5,-17.39697 31.5,0 31.5,17.39697 17.39697,31.5 0,31.5 -17.39697,31.5 -31.5,17.39697 -31.5,0 -31.5,-17.39697 -17.39697,-31.5 0,-31.5" /></g><g
           transform="rotate(90,-2135.5,7637)"
           id="g134"><path
             id="path136"
             style="fill:none;stroke:#bd5800;stroke-width:28;stroke-linecap:round;stroke-linejoin:round;stroke-miterlimit:10;stroke-dasharray:none;stroke-opacity:1"
             d="M 0,-31.5 C 17.39697,-31.5 31.5,-17.39697 31.5,0 31.5,17.39697 17.39697,31.5 0,31.5 -17.39697,31.5 -31.5,17.39697 -31.5,0 -31.5,-17.39697 -17.39697,-31.5 0,-31.5" /></g><path
           id="path138"
           style="fill:none;stroke:#000000;stroke-width:9;stroke-linecap:round;stroke-linejoin:round;stroke-miterlimit:10;stroke-dasharray:none;stroke-opacity:1"
           d="m 5273,11119 h 233" /><path
           id="path140"
           style="fill:none;stroke:#000000;stroke-width:9;stroke-linecap:round;stroke-linejoin:round;stroke-miterlimit:10;stroke-dasharray:none;stroke-opacity:1"
           d="m 5551,11119 h 45" /><path
           id="path142"
           style="fill:none;stroke:#000000;stroke-width:9;stroke-linecap:round;stroke-linejoin:round;stroke-miterlimit:10;stroke-dasharray:none;stroke-opacity:1"
           d="m 5641,11119 h 233" /></g></g><g
       id="g144"><g
         clip-path="url(#clipPath150)"
         id="g146"><path
           id="path152"
           style="fill:none;stroke:#000000;stroke-width:12.5;stroke-linecap:round;stroke-linejoin:round;stroke-miterlimit:10;stroke-dasharray:none;stroke-opacity:1"
           d="m 0,8018 h 9191 v 4115 H 0" /></g></g></g></svg>